# xmcd CD database file
#
# Track frame offsets:
#	150
#	21300
#	38250
#
# Disc length: 743 seconds
#
# Revision: 2
# Processed by: cddbd v1.5PL3 Copyright (c) Steve Scherf et al.
# Submitted via: CDex 1.50beta8
#
DISCID=1602e503
DTITLE=LOVE PSYCHEDELICO - LADY MADONNA 〜憂鬱なるスパイダー〜
DYEAR=1900
DGENRE=
TTITLE0=LADY MADONNA 〜憂鬱なるスパイダー〜
TTITLE1=LOW
TTITLE2=FLY
EXTD=
EXTT0=
EXTT1=
EXTT2=
PLAYORDER=
